<svg width="95" height="95" viewBox="0 0 95 95" fill="none" xmlns="http://www.w3.org/2000/svg">
<circle cx="47.5" cy="47.5" r="47.5" fill="#00AE42"/>
<path d="M31 66.8902C31 60.3234 36.3234 55 42.8902 55V55C43.5031 55 44 55.4969 44 56.1098V80.5C44 84.0899 41.0899 87 37.5 87H33.7317C32.223 87 31 85.777 31 84.2683V66.8902Z" fill="#D9D9D9"/>
<path d="M50 11.7317C50 10.223 51.223 9 52.7317 9H56.5C60.0899 9 63 11.9101 63 15.5V39.8902C63 40.5031 62.5031 41 61.8902 41V41C55.3234 41 50 35.6766 50 29.1098V11.7317Z" fill="#D9D9D9"/>
<path d="M50 49.1098C50 48.4969 50.4969 48 51.1098 48V48C57.6766 48 63 53.3234 63 59.8902V83.6707C63 85.5094 61.5094 87 59.6707 87H56.5C52.9101 87 50 84.0899 50 80.5V49.1098Z" fill="#D9D9D9"/>
<path d="M31 15.5C31 11.9102 33.9101 9 37.5 9H40.6707C42.5094 9 44 10.4906 44 12.3293V36.1098C44 42.6766 38.6766 48 32.1098 48V48C31.4969 48 31 47.5031 31 46.8902V15.5Z" fill="#D9D9D9"/>
</svg>
